<?xml version="1.0" standalone="no"?>
<!DOCTYPE svg PUBLIC "-//W3C//DTD SVG 20010904//EN"
 "http://www.w3.org/TR/2001/REC-SVG-20010904/DTD/svg10.dtd">
<svg version="1.0" xmlns="http://www.w3.org/2000/svg"
 width="445.000000pt" height="542.000000pt" viewBox="0 0 445.000000 542.000000"
 preserveAspectRatio="xMidYMid meet">
<metadata>
Created by potrace 1.16, written by Peter Selinger 2001-2019
</metadata>
<g transform="translate(0.000000,542.000000) scale(0.100000,-0.100000)"
fill="#000000" stroke="none">
<path d="M2055 3934 c-103 -24 -217 -65 -241 -86 -11 -10 -25 -18 -30 -18 -19
0 -91 -69 -101 -97 -25 -67 -34 -129 -23 -157 5 -15 10 -38 10 -51 0 -35 43
-80 90 -94 34 -10 52 -10 93 0 29 7 59 18 67 25 8 7 45 26 82 43 57 27 78 31
147 31 69 0 83 -3 107 -23 22 -19 28 -34 31 -78 5 -68 -16 -113 -73 -152 -38
-27 -49 -29 -165 -34 -167 -8 -217 -25 -248 -90 -47 -98 -34 -193 36 -257 33
-31 44 -35 112 -40 214 -17 272 -26 323 -52 65 -33 80 -48 94 -96 22 -72 -8
-141 -76 -177 -33 -17 -58 -21 -133 -21 -95 0 -138 10 -235 55 -29 14 -56 25
-61 25 -5 0 -22 7 -37 15 -37 19 -71 19 -108 0 -15 -8 -34 -15 -40 -15 -7 0
-25 -26 -40 -59 -37 -76 -34 -150 10 -237 26 -54 35 -62 100 -96 134 -70 333
-105 499 -87 107 11 222 37 231 51 3 4 11 8 19 8 22 0 131 76 174 121 117 123
177 335 140 496 -19 80 -80 194 -131 244 -54 51 -57 65 -27 100 57 65 90 175
93 304 2 125 -36 248 -98 320 -14 17 -26 33 -26 37 0 4 -17 19 -37 33 -21 14
-48 32 -61 41 -12 9 -53 28 -90 41 -57 21 -88 26 -212 28 -80 2 -154 2 -165
-1z"/>
</g>
</svg>
