<?xml version="1.0" standalone="no"?>
<!DOCTYPE svg PUBLIC "-//W3C//DTD SVG 20010904//EN"
 "http://www.w3.org/TR/2001/REC-SVG-20010904/DTD/svg10.dtd">
<svg version="1.0" xmlns="http://www.w3.org/2000/svg"
 width="446.000000pt" height="542.000000pt" viewBox="0 0 446.000000 542.000000"
 preserveAspectRatio="xMidYMid meet">
<metadata>
Created by potrace 1.16, written by Peter Selinger 2001-2019
</metadata>
<g transform="translate(0.000000,542.000000) scale(0.100000,-0.100000)"
fill="#000000" stroke="none">
<path d="M2065 3934 c-102 -24 -227 -69 -272 -98 -93 -59 -133 -127 -133 -226
0 -96 33 -159 97 -186 54 -23 87 -16 206 41 82 40 129 57 173 61 128 14 194
-54 181 -184 -5 -51 -73 -215 -96 -232 -3 -3 -15 -18 -25 -35 -39 -61 -159
-195 -339 -379 -102 -104 -190 -201 -195 -215 -34 -94 -38 -147 -17 -236 12
-47 77 -102 133 -112 26 -4 243 -8 482 -8 l435 0 47 24 c38 19 51 33 68 73 28
66 28 141 -1 208 -20 45 -29 56 -73 76 -48 22 -62 24 -247 24 -108 0 -199 3
-202 6 -8 8 21 44 107 134 164 173 245 289 318 455 24 57 40 143 45 256 6 139
-4 191 -55 298 -44 90 -163 193 -257 221 -22 6 -53 16 -70 22 -32 11 -276 20
-310 12z"/>
</g>
</svg>
