<svg version="1.1" id="Layer_1" xmlns="http://www.w3.org/2000/svg" xmlns:xlink="http://www.w3.org/1999/xlink" x="0px" y="0px"
	 width="100%" viewBox="0 0 1024 816" enable-background="new 0 0 1024 816" xml:space="preserve">
<path fill="#000000" opacity="1.000000" stroke="none" 
	d="
M514.017517,321.023956 
	C513.891663,318.671783 509.679047,316.222931 513.221924,314.215515 
	C516.118896,312.574127 517.683777,316.064240 519.370361,318.007782 
	C519.689880,318.375977 519.939636,318.804718 520.458984,319.543060 
	C522.099243,316.707031 523.631714,314.057434 525.231445,311.291473 
	C522.411804,309.452942 518.385681,308.393005 519.227112,304.306854 
	C519.794556,301.550873 522.426453,303.171509 524.418091,303.806946 
	C524.504944,299.529358 525.598389,297.126343 529.958618,300.204102 
	C530.717407,300.739685 531.859558,300.705627 532.796082,301.019958 
	C540.015747,303.442993 540.872559,306.159912 537.018799,312.809784 
	C529.439941,325.887238 522.013855,339.053345 514.546082,352.194977 
	C511.449554,357.644135 509.177307,358.616943 503.204926,357.702911 
	C498.992493,357.058258 494.772797,355.898926 490.389832,356.557526 
	C490.675903,369.834900 495.139313,381.959259 498.763916,394.277344 
	C499.837128,397.924713 502.082642,399.042358 505.803040,398.953888 
	C508.548157,398.888611 512.503357,397.163422 513.884460,400.647797 
	C515.170105,403.891266 511.465088,405.765411 509.598236,407.927063 
	C499.808777,419.262512 489.981018,430.567719 479.975800,441.712128 
	C477.291321,444.702240 477.333160,446.743225 480.088013,449.676971 
	C493.301666,463.748352 506.326050,477.997437 519.412598,492.188141 
	C520.315125,493.166840 521.243652,494.132874 522.042725,495.193268 
	C523.825806,497.559296 522.963318,499.111389 520.240662,499.158600 
	C514.081970,499.265472 507.914062,499.161652 501.757599,498.934113 
	C498.779999,498.824066 497.273834,496.207581 495.509796,494.300568 
	C484.091034,481.956482 472.758423,469.532715 461.384949,457.146698 
	C459.740326,455.355652 458.028015,453.626740 455.859039,451.358765 
	C454.764526,459.230591 455.507507,466.198425 455.650177,473.128235 
	C455.794220,480.124817 455.827118,487.100708 455.652802,494.097137 
	C455.557922,497.906525 453.901733,499.174622 450.487946,499.092194 
	C450.321503,499.088165 450.154694,499.100525 449.988159,499.097931 
	C433.375153,498.839233 435.027191,501.269501 435.014496,484.698395 
	C434.982422,442.711609 435.087402,400.724579 435.235077,358.738007 
	C435.241669,356.862854 434.569305,355.557404 433.582703,354.220917 
	C423.553162,340.634125 421.162170,325.209351 422.785187,308.868042 
	C422.959839,307.109711 423.887909,305.419495 424.512177,303.714417 
	C425.186493,301.872589 424.799774,300.580200 423.616150,298.787964 
	C417.025116,288.807770 413.748169,278.490387 419.849823,266.688629 
	C422.993835,260.607452 426.676941,255.629166 432.334961,251.638351 
	C440.680756,245.751678 449.400574,246.987137 458.070526,249.442154 
	C464.946808,251.389282 470.121674,256.211823 474.404510,261.966553 
	C476.231323,264.421204 476.785919,266.662598 474.883514,269.208954 
	C472.663788,272.179962 472.250610,275.570007 472.348877,279.157990 
	C472.505829,284.887573 471.693604,290.278412 468.440735,295.357758 
	C463.437286,303.170715 456.852478,307.014191 447.519653,305.498718 
	C444.180573,304.956512 441.296967,305.582642 438.820465,308.645416 
	C445.284821,319.136414 453.790283,327.238373 465.639435,331.780273 
	C472.766541,334.512146 479.701996,337.774292 486.605896,341.046417 
	C490.512634,342.898041 488.616364,346.914459 489.212830,350.118500 
	C493.513184,351.958344 497.963440,351.762421 503.136627,351.547485 
	C500.790436,349.756561 497.122101,350.556549 497.003693,347.053040 
	C496.925018,344.725861 498.993622,344.758179 500.500153,344.310577 
	C498.570709,339.221710 500.646942,334.895325 505.778107,333.160278 
	C506.148132,330.944275 502.386932,328.106812 505.591614,326.649597 
	C509.171844,325.021606 510.682312,329.475616 513.561218,331.091187 
	C516.250610,329.287445 516.915405,326.122833 518.399292,323.609894 
	C517.633301,321.710938 515.839844,321.910645 514.304382,321.087830 
	C513.990356,320.999084 514.017517,321.023956 514.017517,321.023956 
M485.307526,386.763580 
	C483.996155,395.097992 482.688690,403.432983 481.369415,411.766144 
	C481.163239,413.068390 480.401489,413.897125 479.062866,413.985443 
	C477.743713,414.072449 476.881409,413.287659 476.316650,412.184814 
	C475.587280,410.760651 475.868896,409.268860 476.124115,407.787842 
	C478.507721,393.954132 480.792297,380.102051 483.353485,366.301331 
	C483.880157,363.463348 482.988068,362.503906 480.534302,361.622772 
	C474.457397,359.440552 467.912750,360.768494 461.844360,358.920868 
	C457.404358,357.569031 455.960510,359.129059 455.738739,363.610565 
	C454.471344,389.221649 455.407959,414.842896 455.168274,440.457031 
	C455.159943,441.349060 454.928772,442.536102 456.308258,442.866364 
	C456.603363,442.719543 456.977142,442.645844 457.175415,442.418884 
	C468.876068,429.022217 480.549133,415.601440 492.267578,402.220428 
	C493.609467,400.688141 494.102386,398.976440 493.580048,397.141663 
	C491.670624,390.434692 489.629395,383.765198 487.368103,376.176270 
	C486.553040,380.055420 485.940002,382.973114 485.307526,386.763580 
M438.281158,287.909393 
	C438.114655,298.716888 445.991699,304.261841 455.433136,299.710022 
	C460.529816,297.252869 464.120605,293.227325 465.908478,287.607910 
	C467.306152,283.214935 466.720703,278.685791 467.467346,274.256989 
	C468.472778,268.292877 466.488678,265.977783 460.457306,265.408661 
	C451.876129,264.598999 443.663666,269.815582 440.940094,277.936096 
	C439.936737,280.927521 439.206909,284.010712 438.281158,287.909393 
M429.385651,330.063477 
	C430.854065,334.972260 431.720856,340.056152 434.286560,344.629761 
	C436.829529,349.162811 445.730591,352.013367 450.260101,349.483704 
	C450.668427,349.255676 451.289886,348.829407 451.278229,348.515015 
	C451.053741,342.464813 455.223663,341.391724 460.135223,341.318848 
	C459.103241,338.783142 457.164307,338.830933 455.502258,338.190277 
	C450.772003,336.366852 445.225067,335.727112 442.168182,331.075470 
	C439.076843,326.371460 436.510254,321.323456 433.692444,316.438507 
	C432.349182,314.109894 431.428894,311.414001 428.572021,309.870514 
	C425.954041,316.738525 427.707123,322.987152 429.385651,330.063477 
z"/>
<path fill="#000000" opacity="1.000000" stroke="none" 
	d="
M697.871399,487.351562 
	C679.723816,510.034973 644.171692,505.268097 633.703552,476.749329 
	C628.586609,462.808899 628.428467,448.644684 631.559265,434.205841 
	C634.547607,420.423828 640.768982,408.585449 653.320557,401.844574 
	C659.609619,398.466949 661.613953,394.746887 660.758484,388.290680 
	C660.411499,385.671600 660.646179,382.964844 660.735962,380.302032 
	C660.801514,378.357239 660.543457,375.751434 663.507996,376.034851 
	C666.289246,376.300751 665.947449,378.867798 665.709412,380.778992 
	C665.064026,385.959839 665.958801,391.045837 666.247986,396.392975 
	C670.025146,397.453400 673.720093,397.136292 677.818726,396.566803 
	C673.741150,388.786194 670.780334,380.568726 665.617371,374.112152 
	C661.620972,369.114471 658.804077,364.613739 658.530396,358.227783 
	C658.418091,355.607941 654.326843,355.473602 653.506775,352.497375 
	C651.933411,346.787201 649.456543,341.310059 648.095520,335.560822 
	C645.910767,326.332092 642.989746,317.329132 640.480347,308.203125 
	C638.902405,302.464569 640.368591,300.109924 646.263062,298.875793 
	C647.713074,298.572235 649.231812,298.714050 650.511902,297.695618 
	C651.987244,296.521881 653.463257,294.176910 655.549744,296.032959 
	C657.441162,297.715576 655.315430,299.690491 654.900818,301.493652 
	C659.433899,304.812622 659.433899,304.812622 653.262512,311.055420 
	C654.590027,312.587860 655.624939,310.947784 656.714844,310.689453 
	C658.453430,310.277405 660.450256,309.004059 661.389587,311.523651 
	C662.406128,314.250153 660.490784,315.462006 658.204834,316.124329 
	C657.268433,316.395660 656.276184,316.474121 654.603943,316.761505 
	C656.907532,324.317627 659.144287,331.654663 661.463623,339.262512 
	C663.212585,338.514191 664.509094,337.789001 665.899902,337.411987 
	C667.310730,337.029602 669.034912,337.497833 668.893372,339.101532 
	C668.372498,345.000793 672.769226,345.250641 676.580139,346.012390 
	C678.350708,346.366302 679.585571,347.162476 681.120850,348.822571 
	C679.073975,342.697021 683.222778,340.558746 687.008728,337.726440 
	C699.091309,328.687500 711.723694,320.150024 719.537537,306.622009 
	C720.284912,305.328094 721.061035,304.047333 721.729736,302.713318 
	C721.997375,302.179382 722.010376,301.517822 722.226624,300.505432 
	C706.550476,303.398468 697.798462,294.789307 692.943970,282.084991 
	C690.059875,274.537140 687.596191,265.827667 690.798218,257.743591 
	C695.225647,246.565720 704.921936,242.065994 716.326477,240.740677 
	C723.118042,239.951431 729.161377,242.180008 734.730103,245.743118 
	C738.522705,248.169800 741.188904,251.780396 741.696411,256.270660 
	C742.950317,267.362549 742.202820,278.240234 736.143921,288.065552 
	C734.741150,290.340332 734.005249,292.506683 734.662720,295.112427 
	C738.207764,309.162720 734.904968,322.856659 732.036255,336.450745 
	C730.532959,343.574219 726.527466,349.860321 721.710266,355.364319 
	C719.870483,357.466431 720.155762,359.653046 720.153748,361.899139 
	C720.114685,404.550507 720.120605,447.201935 720.115601,489.853333 
	C720.115417,491.519287 720.086365,493.185242 720.092224,494.851166 
	C720.102295,497.718079 718.742859,499.153961 715.818970,499.123016 
	C712.320862,499.085968 708.816467,499.009186 705.324768,499.168274 
	C701.465881,499.344147 699.783813,497.670380 699.997009,493.829926 
	C700.107483,491.839508 700.024170,489.828918 699.884399,487.837555 
	C699.798645,486.614044 699.245422,485.905457 697.871399,487.351562 
M681.344055,482.081268 
	C687.549622,479.476257 693.008118,475.799774 697.620972,470.869080 
	C699.263672,469.113159 700.338196,467.335052 700.293884,464.716614 
	C700.111206,453.907288 699.547302,443.050140 700.327759,432.297943 
	C700.846497,425.151825 697.811584,421.456512 692.424255,417.853394 
	C676.673950,407.319489 660.632812,412.038574 654.062378,429.694092 
	C650.081970,440.389923 650.502563,451.494446 651.940674,462.592255 
	C652.958984,470.451141 655.608643,477.533112 663.062927,481.485535 
	C668.647217,484.446411 674.703735,483.043121 681.344055,482.081268 
M709.302429,293.187134 
	C716.274475,296.460724 721.108398,295.548950 726.673462,289.826569 
	C734.710938,281.561829 736.654663,271.415894 735.592346,260.397400 
	C734.909912,253.318832 730.351013,248.397507 723.403625,247.444962 
	C720.790527,247.086700 718.092773,247.232574 715.438293,247.309326 
	C704.210022,247.633957 696.250549,255.777740 696.284790,266.837982 
	C696.289978,268.500031 696.130249,270.185730 696.348755,271.820099 
	C697.512146,280.522797 700.658508,288.099457 709.302429,293.187134 
M686.048279,398.499329 
	C690.799805,400.309570 694.687866,403.680420 699.554504,406.577728 
	C699.554504,390.996704 699.554504,376.187286 699.554504,360.950928 
	C688.970703,361.337067 679.169373,363.746124 668.105286,363.605377 
	C673.132996,376.273804 679.047974,387.281403 686.048279,398.499329 
M701.964417,341.580902 
	C706.570251,337.022247 710.757996,331.907593 715.889893,328.048340 
	C722.041504,323.422241 722.617126,316.816345 723.908569,309.987885 
	C717.112671,325.845367 700.962769,332.224884 688.993652,344.666595 
	C694.270630,344.492188 698.318176,345.733398 701.964417,341.580902 
M726.533325,324.938904 
	C725.293335,328.113342 723.218628,330.251404 720.169678,332.091705 
	C716.405701,334.363617 713.381653,337.819702 710.692383,341.432281 
	C711.667847,343.142517 714.058533,343.306671 714.259705,345.499298 
	C714.419800,347.243530 714.209473,349.455505 716.854248,349.571625 
	C719.213135,349.675232 720.208557,347.815918 721.337952,346.142242 
	C726.403931,338.634552 727.967773,330.192139 728.329102,321.153839 
	C726.720154,321.942627 727.446106,323.399292 726.533325,324.938904 
z"/>
<path fill="#000000" opacity="1.000000" stroke="none" 
	d="
M309.938324,345.170013 
	C301.314972,338.716644 298.131561,329.638306 297.035065,319.954926 
	C296.075806,311.483917 300.081940,304.533661 306.915680,298.799072 
	C304.592804,297.319214 301.219147,296.062378 302.929382,292.937714 
	C304.666290,289.764282 308.104950,292.469574 310.770020,291.775879 
	C310.945831,291.623657 311.292358,291.461304 311.418213,291.194763 
	C315.773834,281.971405 315.786652,281.914886 326.977936,285.124298 
	C331.606415,286.451630 336.160645,288.042603 340.731201,289.566132 
	C348.175476,292.047516 348.712860,293.122986 346.535339,300.795624 
	C346.269562,301.732056 346.050659,302.681824 345.856537,303.443054 
	C346.927246,305.087250 348.526520,305.223053 349.859497,305.817719 
	C351.906921,306.731110 354.763245,306.797150 354.897766,309.865906 
	C355.052948,313.407166 351.818634,313.154083 349.308075,314.121674 
	C349.279449,321.201721 349.285645,328.390991 345.398285,334.767792 
	C344.016815,337.033997 342.941589,339.598816 341.151062,341.479401 
	C337.886261,344.908447 338.594299,347.618805 341.421814,350.873718 
	C348.067291,358.523529 351.387329,368.081543 355.735840,377.024933 
	C356.999847,379.624512 356.270782,382.452942 355.061676,385.209503 
	C351.677399,392.925049 347.729645,400.465790 347.295624,409.181183 
	C347.126556,412.576874 348.149689,415.214020 350.315216,417.814056 
	C354.224304,422.507477 357.802399,427.476593 361.927246,432.864166 
	C365.328796,428.730804 368.450439,425.133881 371.352264,421.367645 
	C376.328064,414.909515 381.186249,408.360229 386.050842,401.817291 
	C387.548096,399.803497 389.348267,398.662140 391.961670,398.783752 
	C394.788391,398.915222 397.626434,398.784210 400.456909,398.862305 
	C402.071106,398.906860 404.009857,398.518768 404.886505,400.383759 
	C405.851868,402.437378 404.921234,404.198914 403.620697,405.880768 
	C394.162384,418.112244 384.829742,430.442352 375.248077,442.575989 
	C372.783936,445.696442 372.594574,447.815277 375.192902,451.124786 
	C385.963409,464.843384 396.403687,478.821899 406.903992,492.751099 
	C408.048431,494.269226 409.747284,495.876007 408.426575,498.112030 
	C407.214294,500.164459 405.128418,498.998108 403.426910,499.313141 
	C391.543335,501.513336 383.827301,496.493500 378.040985,486.217194 
	C374.245789,479.476990 368.837921,473.642059 364.119141,467.426849 
	C363.033569,465.997040 362.186768,464.285919 359.941437,463.517456 
	C355.443207,467.554230 352.484222,473.008484 348.654785,477.729279 
	C343.941406,483.539642 339.382141,489.495697 335.117950,495.639801 
	C333.371307,498.156494 331.468903,499.232727 328.554321,499.173950 
	C325.057739,499.103516 321.557220,499.251617 318.058960,499.227386 
	C316.599579,499.217285 314.869995,499.476776 314.118469,497.775970 
	C313.399963,496.149841 314.567780,494.916260 315.468872,493.746460 
	C322.982819,483.992249 330.535645,474.268036 338.045532,464.510712 
	C341.392151,460.162598 344.557587,455.670013 348.023743,451.421234 
	C349.610260,449.476471 349.466980,448.107971 348.030945,446.202667 
	C338.013214,432.911011 328.094238,419.544922 318.124298,406.217133 
	C316.752075,404.382721 314.922058,403.281921 312.551605,403.446594 
	C307.274597,403.813171 302.066162,404.573883 296.775116,406.152679 
	C297.111572,409.903931 299.296967,412.103058 302.038788,413.689606 
	C312.848969,419.944855 321.756134,428.246155 329.196899,438.229156 
	C330.748322,440.310638 331.982666,442.477631 329.674927,444.333801 
	C327.055176,446.440979 325.326294,444.050385 324.122101,442.081970 
	C317.969452,432.024292 309.014069,424.942566 299.317352,418.710846 
	C295.437622,416.217468 292.374207,412.994781 289.656372,409.438690 
	C286.347412,405.109192 287.294037,402.466309 292.483551,401.057983 
	C296.797516,399.887299 301.135681,398.721771 305.666656,398.280121 
	C304.116455,398.280121 302.505615,398.558258 301.025757,398.235565 
	C290.404602,395.919525 285.413147,401.805511 281.554138,410.569183 
	C277.827118,419.033173 273.207031,427.110321 268.837799,435.281769 
	C267.266907,438.219635 265.781433,441.137543 264.703857,444.313904 
	C264.055786,446.224243 262.421204,448.004547 260.078125,446.820892 
	C258.014618,445.778503 258.505554,443.594849 259.302673,441.961761 
	C262.944214,434.501587 266.228271,426.796356 270.621704,419.794708 
	C274.562500,413.514404 276.814514,406.564178 280.181244,400.092255 
	C280.480713,399.516602 280.800934,398.783966 280.700867,398.193848 
	C279.530762,391.291962 284.139008,389.444336 289.145966,386.255280 
	C304.092316,376.735657 319.068878,366.902740 328.795837,350.895233 
	C321.642487,351.945953 315.759369,349.242706 309.938324,345.170013 
M314.710236,301.351288 
	C310.601196,303.043427 307.468231,305.700378 305.138489,309.617676 
	C300.211823,317.901550 305.674957,337.369934 316.085236,342.127075 
	C321.074707,344.407135 325.923187,346.324982 331.034912,342.605896 
	C340.400787,335.791565 343.343811,326.221405 342.960846,315.143951 
	C342.851440,311.978485 341.769165,309.996887 338.666473,308.653442 
	C331.166809,305.406128 322.971039,304.502136 314.710236,301.351288 
M334.948395,369.242371 
	C334.839264,365.153778 335.149078,360.996094 332.415985,356.039551 
	C323.222229,372.026947 307.449280,380.021698 293.298615,391.262451 
	C306.301514,392.120850 317.993011,392.914581 329.688385,393.646545 
	C332.063477,393.795197 334.795135,393.844604 334.731293,390.466888 
	C334.603088,383.684692 336.688477,376.941254 334.948395,369.242371 
M343.808685,366.831482 
	C343.154236,366.024902 343.327545,364.518585 341.344513,364.339600 
	C341.344513,371.043854 340.669342,377.733704 341.532715,384.218750 
	C342.412079,390.824127 337.853821,396.885376 340.084442,403.468445 
	C342.203979,399.899170 343.180176,395.938568 345.212372,392.625793 
	C350.597443,383.847260 350.198761,375.601562 343.808685,366.831482 
z"/>
<path fill="#000000" opacity="1.000000" stroke="none" 
	d="
M609.787537,416.132080 
	C605.382874,416.748108 601.874695,414.796753 598.186279,413.943268 
	C592.056030,412.524689 585.887390,412.468079 579.813049,413.229980 
	C574.069214,413.950470 569.076538,416.861603 565.672974,421.771851 
	C561.039307,428.456787 558.161499,435.728180 558.106384,444.068878 
	C558.041199,453.925629 557.785706,463.612030 563.778748,472.363403 
	C570.537659,482.233002 583.274536,487.047272 594.779785,483.673828 
	C599.211914,482.374329 603.822937,481.761871 608.053711,479.690674 
	C610.556885,478.465271 612.318298,479.312714 612.358093,482.370758 
	C612.403687,485.868439 612.432617,489.369293 612.336365,492.865143 
	C612.202881,497.712280 607.726074,497.263367 604.993652,498.018250 
	C598.793213,499.731140 592.380798,501.291321 585.992798,501.589386 
	C570.318848,502.320801 556.752686,496.956268 546.911438,484.484192 
	C533.919495,468.019135 531.998901,449.196777 537.932800,429.676605 
	C544.685669,407.462311 559.515808,397.172302 582.915955,397.030090 
	C590.930664,396.981384 598.866516,397.450256 606.782532,398.793793 
	C610.400574,399.407806 612.389343,401.137085 612.010315,404.712006 
	C611.608582,408.501434 613.728333,412.737793 609.787537,416.132080 
z"/>
<path fill="#000000" opacity="1.000000" stroke="none" 
	d="
M658.461548,318.232971 
	C660.283447,317.302002 661.923218,316.545105 663.198547,318.293915 
	C663.938477,319.308502 663.755859,320.620300 662.791382,321.470184 
	C661.620544,322.501984 660.095093,323.032776 658.653809,322.230530 
	C656.988708,321.303741 657.119019,319.867859 658.461548,318.232971 
z"/>
<path fill="#000000" opacity="1.000000" stroke="none" 
	d="
M513.974670,320.989014 
	C514.881775,322.745483 517.363831,324.304077 515.096985,326.568146 
	C514.030640,327.633209 512.616577,327.106476 511.468628,326.239777 
	C510.343750,325.390503 509.623627,324.341736 509.830292,322.850586 
	C510.119934,320.760406 511.601501,320.769257 513.599365,320.989990 
	C514.017517,321.023956 513.990356,320.999084 513.974670,320.989014 
z"/>
</svg>